<?xml version="1.0" encoding="UTF-8"?>
<!DOCTYPE svg PUBLIC "-//W3C//DTD SVG 1.1//EN" "http://www.w3.org/Graphics/SVG/1.1/DTD/svg11.dtd">
<svg width="350mm" height="120mm" viewBox="0 0 35000 12000" version="1.1" xmlns="http://www.w3.org/2000/svg" xmlns:xlink="http://www.w3.org/1999/xlink" stroke-width="28.222" stroke-linejoin="round" xml:space="preserve">
 <path fill="none" stroke="rgb(179,179,179)" stroke-linejoin="round" d="M 17980,11500 L 2711,11500 2711,3270 33250,3270 33250,11500 17980,11500 Z"/>
 <path fill="none" stroke="rgb(179,179,179)" stroke-linejoin="round" d="M 33249,11499 L 2710,11499"/>
 <path fill="none" stroke="rgb(179,179,179)" stroke-linejoin="round" d="M 33249,10323 L 2710,10323"/>
 <path fill="none" stroke="rgb(179,179,179)" stroke-linejoin="round" d="M 33249,9147 L 2710,9147"/>
 <path fill="none" stroke="rgb(179,179,179)" stroke-linejoin="round" d="M 33249,7971 L 2710,7971"/>
 <path fill="none" stroke="rgb(179,179,179)" stroke-linejoin="round" d="M 33249,6795 L 2710,6795"/>
 <path fill="none" stroke="rgb(179,179,179)" stroke-linejoin="round" d="M 33249,5620 L 2710,5620"/>
 <path fill="none" stroke="rgb(179,179,179)" stroke-linejoin="round" d="M 33249,4444 L 2710,4444"/>
 <path fill="none" stroke="rgb(179,179,179)" stroke-linejoin="round" d="M 33249,3269 L 2710,3269"/>
 <path fill="none" stroke="rgb(179,179,179)" stroke-linejoin="round" d="M 2710,3119 L 2710,3269"/>
 <path fill="none" stroke="rgb(179,179,179)" stroke-linejoin="round" d="M 2710,3119 L 2710,3269"/>
 <path fill="none" stroke="rgb(179,179,179)" stroke-linejoin="round" d="M 3298,3119 L 3298,3269"/>
 <path fill="none" stroke="rgb(179,179,179)" stroke-linejoin="round" d="M 3298,3119 L 3298,3269"/>
 <path fill="none" stroke="rgb(179,179,179)" stroke-linejoin="round" d="M 3885,3119 L 3885,3269"/>
 <path fill="none" stroke="rgb(179,179,179)" stroke-linejoin="round" d="M 3885,3119 L 3885,3269"/>
 <path fill="none" stroke="rgb(179,179,179)" stroke-linejoin="round" d="M 4472,3119 L 4472,3269"/>
 <path fill="none" stroke="rgb(179,179,179)" stroke-linejoin="round" d="M 4472,3119 L 4472,3269"/>
 <path fill="none" stroke="rgb(179,179,179)" stroke-linejoin="round" d="M 5060,3119 L 5060,3269"/>
 <path fill="none" stroke="rgb(179,179,179)" stroke-linejoin="round" d="M 5060,3119 L 5060,3269"/>
 <path fill="none" stroke="rgb(179,179,179)" stroke-linejoin="round" d="M 5647,3119 L 5647,3269"/>
 <path fill="none" stroke="rgb(179,179,179)" stroke-linejoin="round" d="M 5647,3119 L 5647,3269"/>
 <path fill="none" stroke="rgb(179,179,179)" stroke-linejoin="round" d="M 6234,3119 L 6234,3269"/>
 <path fill="none" stroke="rgb(179,179,179)" stroke-linejoin="round" d="M 6234,3119 L 6234,3269"/>
 <path fill="none" stroke="rgb(179,179,179)" stroke-linejoin="round" d="M 6822,3119 L 6822,3269"/>
 <path fill="none" stroke="rgb(179,179,179)" stroke-linejoin="round" d="M 6822,3119 L 6822,3269"/>
 <path fill="none" stroke="rgb(179,179,179)" stroke-linejoin="round" d="M 7409,3119 L 7409,3269"/>
 <path fill="none" stroke="rgb(179,179,179)" stroke-linejoin="round" d="M 7409,3119 L 7409,3269"/>
 <path fill="none" stroke="rgb(179,179,179)" stroke-linejoin="round" d="M 7996,3119 L 7996,3269"/>
 <path fill="none" stroke="rgb(179,179,179)" stroke-linejoin="round" d="M 7996,3119 L 7996,3269"/>
 <path fill="none" stroke="rgb(179,179,179)" stroke-linejoin="round" d="M 8584,3119 L 8584,3269"/>
 <path fill="none" stroke="rgb(179,179,179)" stroke-linejoin="round" d="M 8584,3119 L 8584,3269"/>
 <path fill="none" stroke="rgb(179,179,179)" stroke-linejoin="round" d="M 9171,3119 L 9171,3269"/>
 <path fill="none" stroke="rgb(179,179,179)" stroke-linejoin="round" d="M 9171,3119 L 9171,3269"/>
 <path fill="none" stroke="rgb(179,179,179)" stroke-linejoin="round" d="M 9758,3119 L 9758,3269"/>
 <path fill="none" stroke="rgb(179,179,179)" stroke-linejoin="round" d="M 9758,3119 L 9758,3269"/>
 <path fill="none" stroke="rgb(179,179,179)" stroke-linejoin="round" d="M 10345,3119 L 10345,3269"/>
 <path fill="none" stroke="rgb(179,179,179)" stroke-linejoin="round" d="M 10345,3119 L 10345,3269"/>
 <path fill="none" stroke="rgb(179,179,179)" stroke-linejoin="round" d="M 10933,3119 L 10933,3269"/>
 <path fill="none" stroke="rgb(179,179,179)" stroke-linejoin="round" d="M 10933,3119 L 10933,3269"/>
 <path fill="none" stroke="rgb(179,179,179)" stroke-linejoin="round" d="M 11520,3119 L 11520,3269"/>
 <path fill="none" stroke="rgb(179,179,179)" stroke-linejoin="round" d="M 11520,3119 L 11520,3269"/>
 <path fill="none" stroke="rgb(179,179,179)" stroke-linejoin="round" d="M 12107,3119 L 12107,3269"/>
 <path fill="none" stroke="rgb(179,179,179)" stroke-linejoin="round" d="M 12107,3119 L 12107,3269"/>
 <path fill="none" stroke="rgb(179,179,179)" stroke-linejoin="round" d="M 12695,3119 L 12695,3269"/>
 <path fill="none" stroke="rgb(179,179,179)" stroke-linejoin="round" d="M 12695,3119 L 12695,3269"/>
 <path fill="none" stroke="rgb(179,179,179)" stroke-linejoin="round" d="M 13282,3119 L 13282,3269"/>
 <path fill="none" stroke="rgb(179,179,179)" stroke-linejoin="round" d="M 13282,3119 L 13282,3269"/>
 <path fill="none" stroke="rgb(179,179,179)" stroke-linejoin="round" d="M 13869,3119 L 13869,3269"/>
 <path fill="none" stroke="rgb(179,179,179)" stroke-linejoin="round" d="M 13869,3119 L 13869,3269"/>
 <path fill="none" stroke="rgb(179,179,179)" stroke-linejoin="round" d="M 14457,3119 L 14457,3269"/>
 <path fill="none" stroke="rgb(179,179,179)" stroke-linejoin="round" d="M 14457,3119 L 14457,3269"/>
 <path fill="none" stroke="rgb(179,179,179)" stroke-linejoin="round" d="M 15044,3119 L 15044,3269"/>
 <path fill="none" stroke="rgb(179,179,179)" stroke-linejoin="round" d="M 15044,3119 L 15044,3269"/>
 <path fill="none" stroke="rgb(179,179,179)" stroke-linejoin="round" d="M 15631,3119 L 15631,3269"/>
 <path fill="none" stroke="rgb(179,179,179)" stroke-linejoin="round" d="M 15631,3119 L 15631,3269"/>
 <path fill="none" stroke="rgb(179,179,179)" stroke-linejoin="round" d="M 16219,3119 L 16219,3269"/>
 <path fill="none" stroke="rgb(179,179,179)" stroke-linejoin="round" d="M 16219,3119 L 16219,3269"/>
 <path fill="none" stroke="rgb(179,179,179)" stroke-linejoin="round" d="M 16806,3119 L 16806,3269"/>
 <path fill="none" stroke="rgb(179,179,179)" stroke-linejoin="round" d="M 16806,3119 L 16806,3269"/>
 <path fill="none" stroke="rgb(179,179,179)" stroke-linejoin="round" d="M 17393,3119 L 17393,3269"/>
 <path fill="none" stroke="rgb(179,179,179)" stroke-linejoin="round" d="M 17393,3119 L 17393,3269"/>
 <path fill="none" stroke="rgb(179,179,179)" stroke-linejoin="round" d="M 17979,3119 L 17979,3269"/>
 <path fill="none" stroke="rgb(179,179,179)" stroke-linejoin="round" d="M 17979,3119 L 17979,3269"/>
 <path fill="none" stroke="rgb(179,179,179)" stroke-linejoin="round" d="M 18567,3119 L 18567,3269"/>
 <path fill="none" stroke="rgb(179,179,179)" stroke-linejoin="round" d="M 18567,3119 L 18567,3269"/>
 <path fill="none" stroke="rgb(179,179,179)" stroke-linejoin="round" d="M 19154,3119 L 19154,3269"/>
 <path fill="none" stroke="rgb(179,179,179)" stroke-linejoin="round" d="M 19154,3119 L 19154,3269"/>
 <path fill="none" stroke="rgb(179,179,179)" stroke-linejoin="round" d="M 19741,3119 L 19741,3269"/>
 <path fill="none" stroke="rgb(179,179,179)" stroke-linejoin="round" d="M 19741,3119 L 19741,3269"/>
 <path fill="none" stroke="rgb(179,179,179)" stroke-linejoin="round" d="M 20329,3119 L 20329,3269"/>
 <path fill="none" stroke="rgb(179,179,179)" stroke-linejoin="round" d="M 20329,3119 L 20329,3269"/>
 <path fill="none" stroke="rgb(179,179,179)" stroke-linejoin="round" d="M 20916,3119 L 20916,3269"/>
 <path fill="none" stroke="rgb(179,179,179)" stroke-linejoin="round" d="M 20916,3119 L 20916,3269"/>
 <path fill="none" stroke="rgb(179,179,179)" stroke-linejoin="round" d="M 21503,3119 L 21503,3269"/>
 <path fill="none" stroke="rgb(179,179,179)" stroke-linejoin="round" d="M 21503,3119 L 21503,3269"/>
 <path fill="none" stroke="rgb(179,179,179)" stroke-linejoin="round" d="M 22091,3119 L 22091,3269"/>
 <path fill="none" stroke="rgb(179,179,179)" stroke-linejoin="round" d="M 22091,3119 L 22091,3269"/>
 <path fill="none" stroke="rgb(179,179,179)" stroke-linejoin="round" d="M 22678,3119 L 22678,3269"/>
 <path fill="none" stroke="rgb(179,179,179)" stroke-linejoin="round" d="M 22678,3119 L 22678,3269"/>
 <path fill="none" stroke="rgb(179,179,179)" stroke-linejoin="round" d="M 23265,3119 L 23265,3269"/>
 <path fill="none" stroke="rgb(179,179,179)" stroke-linejoin="round" d="M 23265,3119 L 23265,3269"/>
 <path fill="none" stroke="rgb(179,179,179)" stroke-linejoin="round" d="M 23853,3119 L 23853,3269"/>
 <path fill="none" stroke="rgb(179,179,179)" stroke-linejoin="round" d="M 23853,3119 L 23853,3269"/>
 <path fill="none" stroke="rgb(179,179,179)" stroke-linejoin="round" d="M 24440,3119 L 24440,3269"/>
 <path fill="none" stroke="rgb(179,179,179)" stroke-linejoin="round" d="M 24440,3119 L 24440,3269"/>
 <path fill="none" stroke="rgb(179,179,179)" stroke-linejoin="round" d="M 25027,3119 L 25027,3269"/>
 <path fill="none" stroke="rgb(179,179,179)" stroke-linejoin="round" d="M 25027,3119 L 25027,3269"/>
 <path fill="none" stroke="rgb(179,179,179)" stroke-linejoin="round" d="M 25614,3119 L 25614,3269"/>
 <path fill="none" stroke="rgb(179,179,179)" stroke-linejoin="round" d="M 25614,3119 L 25614,3269"/>
 <path fill="none" stroke="rgb(179,179,179)" stroke-linejoin="round" d="M 26202,3119 L 26202,3269"/>
 <path fill="none" stroke="rgb(179,179,179)" stroke-linejoin="round" d="M 26202,3119 L 26202,3269"/>
 <path fill="none" stroke="rgb(179,179,179)" stroke-linejoin="round" d="M 26789,3119 L 26789,3269"/>
 <path fill="none" stroke="rgb(179,179,179)" stroke-linejoin="round" d="M 26789,3119 L 26789,3269"/>
 <path fill="none" stroke="rgb(179,179,179)" stroke-linejoin="round" d="M 27376,3119 L 27376,3269"/>
 <path fill="none" stroke="rgb(179,179,179)" stroke-linejoin="round" d="M 27376,3119 L 27376,3269"/>
 <path fill="none" stroke="rgb(179,179,179)" stroke-linejoin="round" d="M 27964,3119 L 27964,3269"/>
 <path fill="none" stroke="rgb(179,179,179)" stroke-linejoin="round" d="M 27964,3119 L 27964,3269"/>
 <path fill="none" stroke="rgb(179,179,179)" stroke-linejoin="round" d="M 28551,3119 L 28551,3269"/>
 <path fill="none" stroke="rgb(179,179,179)" stroke-linejoin="round" d="M 28551,3119 L 28551,3269"/>
 <path fill="none" stroke="rgb(179,179,179)" stroke-linejoin="round" d="M 29138,3119 L 29138,3269"/>
 <path fill="none" stroke="rgb(179,179,179)" stroke-linejoin="round" d="M 29138,3119 L 29138,3269"/>
 <path fill="none" stroke="rgb(179,179,179)" stroke-linejoin="round" d="M 29726,3119 L 29726,3269"/>
 <path fill="none" stroke="rgb(179,179,179)" stroke-linejoin="round" d="M 29726,3119 L 29726,3269"/>
 <path fill="none" stroke="rgb(179,179,179)" stroke-linejoin="round" d="M 30313,3119 L 30313,3269"/>
 <path fill="none" stroke="rgb(179,179,179)" stroke-linejoin="round" d="M 30313,3119 L 30313,3269"/>
 <path fill="none" stroke="rgb(179,179,179)" stroke-linejoin="round" d="M 30900,3119 L 30900,3269"/>
 <path fill="none" stroke="rgb(179,179,179)" stroke-linejoin="round" d="M 30900,3119 L 30900,3269"/>
 <path fill="none" stroke="rgb(179,179,179)" stroke-linejoin="round" d="M 31488,3119 L 31488,3269"/>
 <path fill="none" stroke="rgb(179,179,179)" stroke-linejoin="round" d="M 31488,3119 L 31488,3269"/>
 <path fill="none" stroke="rgb(179,179,179)" stroke-linejoin="round" d="M 32075,3119 L 32075,3269"/>
 <path fill="none" stroke="rgb(179,179,179)" stroke-linejoin="round" d="M 32075,3119 L 32075,3269"/>
 <path fill="none" stroke="rgb(179,179,179)" stroke-linejoin="round" d="M 32662,3119 L 32662,3269"/>
 <path fill="none" stroke="rgb(179,179,179)" stroke-linejoin="round" d="M 32662,3119 L 32662,3269"/>
 <path fill="none" stroke="rgb(179,179,179)" stroke-linejoin="round" d="M 33249,3119 L 33249,3269"/>
 <path fill="none" stroke="rgb(179,179,179)" stroke-linejoin="round" d="M 33249,3119 L 33249,3269"/>
 <path fill="none" stroke="rgb(179,179,179)" stroke-linejoin="round" d="M 2710,3269 L 33249,3269"/>
 <path fill="none" stroke="rgb(179,179,179)" stroke-linejoin="round" d="M 2560,11499 L 2710,11499"/>
 <path fill="none" stroke="rgb(179,179,179)" stroke-linejoin="round" d="M 2560,11499 L 2710,11499"/>
 <path fill="none" stroke="rgb(179,179,179)" stroke-linejoin="round" d="M 2560,10323 L 2710,10323"/>
 <path fill="none" stroke="rgb(179,179,179)" stroke-linejoin="round" d="M 2560,10323 L 2710,10323"/>
 <path fill="none" stroke="rgb(179,179,179)" stroke-linejoin="round" d="M 2560,9147 L 2710,9147"/>
 <path fill="none" stroke="rgb(179,179,179)" stroke-linejoin="round" d="M 2560,9147 L 2710,9147"/>
 <path fill="none" stroke="rgb(179,179,179)" stroke-linejoin="round" d="M 2560,7971 L 2710,7971"/>
 <path fill="none" stroke="rgb(179,179,179)" stroke-linejoin="round" d="M 2560,7971 L 2710,7971"/>
 <path fill="none" stroke="rgb(179,179,179)" stroke-linejoin="round" d="M 2560,6795 L 2710,6795"/>
 <path fill="none" stroke="rgb(179,179,179)" stroke-linejoin="round" d="M 2560,6795 L 2710,6795"/>
 <path fill="none" stroke="rgb(179,179,179)" stroke-linejoin="round" d="M 2560,5620 L 2710,5620"/>
 <path fill="none" stroke="rgb(179,179,179)" stroke-linejoin="round" d="M 2560,5620 L 2710,5620"/>
 <path fill="none" stroke="rgb(179,179,179)" stroke-linejoin="round" d="M 2560,4444 L 2710,4444"/>
 <path fill="none" stroke="rgb(179,179,179)" stroke-linejoin="round" d="M 2560,4444 L 2710,4444"/>
 <path fill="none" stroke="rgb(179,179,179)" stroke-linejoin="round" d="M 2560,3269 L 2710,3269"/>
 <path fill="none" stroke="rgb(179,179,179)" stroke-linejoin="round" d="M 2560,3269 L 2710,3269"/>
 <path fill="none" stroke="rgb(179,179,179)" stroke-linejoin="round" d="M 2710,11499 L 2710,3269"/>
 <path fill="rgb(0,69,134)" stroke="none" d="M 2857,3386 L 3151,3386 3151,3269 2857,3269 2857,3386 Z"/>
 <path fill="rgb(0,69,134)" stroke="none" d="M 3445,3798 L 3738,3798 3738,3269 3445,3269 3445,3798 Z"/>
 <path fill="rgb(0,69,134)" stroke="none" d="M 4032,4092 L 4326,4092 4326,3269 4032,3269 4032,4092 Z"/>
 <path fill="rgb(0,69,134)" stroke="none" d="M 4619,5608 L 4913,5608 4913,3269 4619,3269 4619,5608 Z"/>
 <path fill="rgb(0,69,134)" stroke="none" d="M 5794,5150 L 6088,5150 6088,3269 5794,3269 5794,5150 Z"/>
 <path fill="rgb(0,69,134)" stroke="none" d="M 6381,4668 L 6675,4668 6675,3269 6381,3269 6381,4668 Z"/>
 <path fill="rgb(0,69,134)" stroke="none" d="M 6968,4209 L 7262,4209 7262,3269 6968,3269 6968,4209 Z"/>
 <path fill="rgb(0,69,134)" stroke="none" d="M 7556,3715 L 7849,3715 7849,3269 7556,3269 7556,3715 Z"/>
 <path fill="rgb(0,69,134)" stroke="none" d="M 8143,4856 L 8437,4856 8437,3269 8143,3269 8143,4856 Z"/>
 <path fill="rgb(0,69,134)" stroke="none" d="M 9318,5032 L 9611,5032 9611,3269 9318,3269 9318,5032 Z"/>
 <path fill="rgb(0,69,134)" stroke="none" d="M 9905,3974 L 10199,3974 10199,3269 9905,3269 9905,3974 Z"/>
 <path fill="rgb(0,69,134)" stroke="none" d="M 10492,9899 L 10786,9899 10786,3269 10492,3269 10492,9899 Z"/>
 <path fill="rgb(0,69,134)" stroke="none" d="M 11080,5338 L 11373,5338 11373,3269 11080,3269 11080,5338 Z"/>
 <path fill="rgb(0,69,134)" stroke="none" d="M 11667,5855 L 11961,5855 11961,3269 11667,3269 11667,5855 Z"/>
 <path fill="rgb(0,69,134)" stroke="none" d="M 12254,7148 L 12548,7148 12548,3269 12254,3269 12254,7148 Z"/>
 <path fill="rgb(0,69,134)" stroke="none" d="M 12842,7089 L 13135,7089 13135,3269 12842,3269 12842,7089 Z"/>
 <path fill="rgb(0,69,134)" stroke="none" d="M 13429,4444 L 13723,4444 13723,3269 13429,3269 13429,4444 Z"/>
 <path fill="rgb(0,69,134)" stroke="none" d="M 14016,3974 L 14310,3974 14310,3269 14016,3269 14016,3974 Z"/>
 <path fill="rgb(0,69,134)" stroke="none" d="M 14603,4209 L 14897,4209 14897,3269 14603,3269 14603,4209 Z"/>
 <path fill="rgb(0,69,134)" stroke="none" d="M 15191,4562 L 15484,4562 15484,3269 15191,3269 15191,4562 Z"/>
 <path fill="rgb(0,69,134)" stroke="none" d="M 15778,5620 L 16072,5620 16072,3269 15778,3269 15778,5620 Z"/>
 <path fill="rgb(0,69,134)" stroke="none" d="M 16365,6090 L 16659,6090 16659,3269 16365,3269 16365,6090 Z"/>
 <path fill="rgb(0,69,134)" stroke="none" d="M 16953,5032 L 17246,5032 17246,3269 16953,3269 16953,5032 Z"/>
 <path fill="rgb(0,69,134)" stroke="none" d="M 17539,6090 L 17833,6090 17833,3269 17539,3269 17539,6090 Z"/>
 <path fill="rgb(0,69,134)" stroke="none" d="M 18126,3621 L 18420,3621 18420,3269 18126,3269 18126,3621 Z"/>
 <path fill="rgb(0,69,134)" stroke="none" d="M 18714,4444 L 19007,4444 19007,3269 18714,3269 18714,4444 Z"/>
 <path fill="rgb(0,69,134)" stroke="none" d="M 20476,4856 L 20769,4856 20769,3269 20476,3269 20476,4856 Z"/>
 <path fill="rgb(0,69,134)" stroke="none" d="M 21063,3856 L 21357,3856 21357,3269 21063,3269 21063,3856 Z"/>
 <path fill="rgb(0,69,134)" stroke="none" d="M 21650,5032 L 21944,5032 21944,3269 21650,3269 21650,5032 Z"/>
 <path fill="rgb(0,69,134)" stroke="none" d="M 22237,7501 L 22531,7501 22531,3269 22237,3269 22237,7501 Z"/>
 <path fill="rgb(0,69,134)" stroke="none" d="M 22825,7853 L 23118,7853 23118,3269 22825,3269 22825,7853 Z"/>
 <path fill="rgb(0,69,134)" stroke="none" d="M 23412,5620 L 23706,5620 23706,3269 23412,3269 23412,5620 Z"/>
 <path fill="rgb(0,69,134)" stroke="none" d="M 23999,6266 L 24293,6266 24293,3269 23999,3269 23999,6266 Z"/>
 <path fill="rgb(0,69,134)" stroke="none" d="M 25174,10323 L 25468,10323 25468,3269 25174,3269 25174,10323 Z"/>
 <path fill="rgb(0,69,134)" stroke="none" d="M 25761,6560 L 26055,6560 26055,3269 25761,3269 25761,6560 Z"/>
 <path fill="rgb(0,69,134)" stroke="none" d="M 30460,3492 L 30753,3492 30753,3269 30460,3269 30460,3492 Z"/>
 <path fill="rgb(0,69,134)" stroke="none" d="M 31047,8676 L 31341,8676 31341,3269 31047,3269 31047,8676 Z"/>
 <path fill="rgb(0,69,134)" stroke="none" d="M 31634,4186 L 31928,4186 31928,3269 31634,3269 31634,4186 Z"/>
 <path fill="rgb(0,69,134)" stroke="none" d="M 32222,3974 L 32515,3974 32515,3269 32222,3269 32222,3974 Z"/>
 <path fill="rgb(0,69,134)" stroke="none" d="M 32809,7501 L 33103,7501 33103,3269 32809,3269 32809,7501 Z"/>
 <text class="SVGTextShape" transform="rotate(-44.9 3089 2962)"><tspan class="TextParagraph" font-family="Liberation Sans, sans-serif" font-size="353px" font-weight="400"><tspan class="TextPosition" x="3089" y="2962"><tspan fill="rgb(0,0,0)" stroke="none" style="white-space: pre">2024-08-19</tspan></tspan></tspan></text>
 <text class="SVGTextShape" transform="rotate(-44.9 4851 2962)"><tspan class="TextParagraph" font-family="Liberation Sans, sans-serif" font-size="353px" font-weight="400"><tspan class="TextPosition" x="4851" y="2962"><tspan fill="rgb(0,0,0)" stroke="none" style="white-space: pre">2024-08-22</tspan></tspan></tspan></text>
 <text class="SVGTextShape" transform="rotate(-44.9 6613 2962)"><tspan class="TextParagraph" font-family="Liberation Sans, sans-serif" font-size="353px" font-weight="400"><tspan class="TextPosition" x="6613" y="2962"><tspan fill="rgb(0,0,0)" stroke="none" style="white-space: pre">2024-08-25</tspan></tspan></tspan></text>
 <text class="SVGTextShape" transform="rotate(-44.9 8375 2962)"><tspan class="TextParagraph" font-family="Liberation Sans, sans-serif" font-size="353px" font-weight="400"><tspan class="TextPosition" x="8375" y="2962"><tspan fill="rgb(0,0,0)" stroke="none" style="white-space: pre">2024-08-28</tspan></tspan></tspan></text>
 <text class="SVGTextShape" transform="rotate(-44.9 10137 2962)"><tspan class="TextParagraph" font-family="Liberation Sans, sans-serif" font-size="353px" font-weight="400"><tspan class="TextPosition" x="10137" y="2962"><tspan fill="rgb(0,0,0)" stroke="none" style="white-space: pre">2024-08-31</tspan></tspan></tspan></text>
 <text class="SVGTextShape" transform="rotate(-44.9 11899 2962)"><tspan class="TextParagraph" font-family="Liberation Sans, sans-serif" font-size="353px" font-weight="400"><tspan class="TextPosition" x="11899" y="2962"><tspan fill="rgb(0,0,0)" stroke="none" style="white-space: pre">2024-09-03</tspan></tspan></tspan></text>
 <text class="SVGTextShape" transform="rotate(-44.9 13661 2962)"><tspan class="TextParagraph" font-family="Liberation Sans, sans-serif" font-size="353px" font-weight="400"><tspan class="TextPosition" x="13661" y="2962"><tspan fill="rgb(0,0,0)" stroke="none" style="white-space: pre">2024-09-06</tspan></tspan></tspan></text>
 <text class="SVGTextShape" transform="rotate(-44.9 15422 2962)"><tspan class="TextParagraph" font-family="Liberation Sans, sans-serif" font-size="353px" font-weight="400"><tspan class="TextPosition" x="15422" y="2962"><tspan fill="rgb(0,0,0)" stroke="none" style="white-space: pre">2024-09-09</tspan></tspan></tspan></text>
 <text class="SVGTextShape" transform="rotate(-44.9 17184 2962)"><tspan class="TextParagraph" font-family="Liberation Sans, sans-serif" font-size="353px" font-weight="400"><tspan class="TextPosition" x="17184" y="2962"><tspan fill="rgb(0,0,0)" stroke="none" style="white-space: pre">2024-09-12</tspan></tspan></tspan></text>
 <text class="SVGTextShape" transform="rotate(-44.9 18945 2962)"><tspan class="TextParagraph" font-family="Liberation Sans, sans-serif" font-size="353px" font-weight="400"><tspan class="TextPosition" x="18945" y="2962"><tspan fill="rgb(0,0,0)" stroke="none" style="white-space: pre">2024-09-15</tspan></tspan></tspan></text>
 <text class="SVGTextShape" transform="rotate(-44.9 20707 2962)"><tspan class="TextParagraph" font-family="Liberation Sans, sans-serif" font-size="353px" font-weight="400"><tspan class="TextPosition" x="20707" y="2962"><tspan fill="rgb(0,0,0)" stroke="none" style="white-space: pre">2024-09-18</tspan></tspan></tspan></text>
 <text class="SVGTextShape" transform="rotate(-44.9 22469 2962)"><tspan class="TextParagraph" font-family="Liberation Sans, sans-serif" font-size="353px" font-weight="400"><tspan class="TextPosition" x="22469" y="2962"><tspan fill="rgb(0,0,0)" stroke="none" style="white-space: pre">2024-09-21</tspan></tspan></tspan></text>
 <text class="SVGTextShape" transform="rotate(-44.9 24231 2962)"><tspan class="TextParagraph" font-family="Liberation Sans, sans-serif" font-size="353px" font-weight="400"><tspan class="TextPosition" x="24231" y="2962"><tspan fill="rgb(0,0,0)" stroke="none" style="white-space: pre">2024-09-24</tspan></tspan></tspan></text>
 <text class="SVGTextShape" transform="rotate(-44.9 25993 2962)"><tspan class="TextParagraph" font-family="Liberation Sans, sans-serif" font-size="353px" font-weight="400"><tspan class="TextPosition" x="25993" y="2962"><tspan fill="rgb(0,0,0)" stroke="none" style="white-space: pre">2024-09-27</tspan></tspan></tspan></text>
 <text class="SVGTextShape" transform="rotate(-44.9 27755 2962)"><tspan class="TextParagraph" font-family="Liberation Sans, sans-serif" font-size="353px" font-weight="400"><tspan class="TextPosition" x="27755" y="2962"><tspan fill="rgb(0,0,0)" stroke="none" style="white-space: pre">2024-09-30</tspan></tspan></tspan></text>
 <text class="SVGTextShape" transform="rotate(-44.9 29517 2962)"><tspan class="TextParagraph" font-family="Liberation Sans, sans-serif" font-size="353px" font-weight="400"><tspan class="TextPosition" x="29517" y="2962"><tspan fill="rgb(0,0,0)" stroke="none" style="white-space: pre">2024-10-03</tspan></tspan></tspan></text>
 <text class="SVGTextShape" transform="rotate(-44.9 31279 2962)"><tspan class="TextParagraph" font-family="Liberation Sans, sans-serif" font-size="353px" font-weight="400"><tspan class="TextPosition" x="31279" y="2962"><tspan fill="rgb(0,0,0)" stroke="none" style="white-space: pre">2024-10-06</tspan></tspan></tspan></text>
 <text class="SVGTextShape" transform="rotate(-44.9 33041 2962)"><tspan class="TextParagraph" font-family="Liberation Sans, sans-serif" font-size="353px" font-weight="400"><tspan class="TextPosition" x="33041" y="2962"><tspan fill="rgb(0,0,0)" stroke="none" style="white-space: pre">2024-10-09</tspan></tspan></tspan></text>
 <text class="SVGTextShape"><tspan class="TextParagraph" font-family="Liberation Sans, sans-serif" font-size="353px" font-weight="400"><tspan class="TextPosition" x="687" y="11620"><tspan fill="rgb(0,0,0)" stroke="none" style="white-space: pre">-70.00 CNY</tspan></tspan></tspan></text>
 <text class="SVGTextShape"><tspan class="TextParagraph" font-family="Liberation Sans, sans-serif" font-size="353px" font-weight="400"><tspan class="TextPosition" x="687" y="10444"><tspan fill="rgb(0,0,0)" stroke="none" style="white-space: pre">-60.00 CNY</tspan></tspan></tspan></text>
 <text class="SVGTextShape"><tspan class="TextParagraph" font-family="Liberation Sans, sans-serif" font-size="353px" font-weight="400"><tspan class="TextPosition" x="687" y="9268"><tspan fill="rgb(0,0,0)" stroke="none" style="white-space: pre">-50.00 CNY</tspan></tspan></tspan></text>
 <text class="SVGTextShape"><tspan class="TextParagraph" font-family="Liberation Sans, sans-serif" font-size="353px" font-weight="400"><tspan class="TextPosition" x="687" y="8092"><tspan fill="rgb(0,0,0)" stroke="none" style="white-space: pre">-40.00 CNY</tspan></tspan></tspan></text>
 <text class="SVGTextShape"><tspan class="TextParagraph" font-family="Liberation Sans, sans-serif" font-size="353px" font-weight="400"><tspan class="TextPosition" x="687" y="6916"><tspan fill="rgb(0,0,0)" stroke="none" style="white-space: pre">-30.00 CNY</tspan></tspan></tspan></text>
 <text class="SVGTextShape"><tspan class="TextParagraph" font-family="Liberation Sans, sans-serif" font-size="353px" font-weight="400"><tspan class="TextPosition" x="687" y="5740"><tspan fill="rgb(0,0,0)" stroke="none" style="white-space: pre">-20.00 CNY</tspan></tspan></tspan></text>
 <text class="SVGTextShape"><tspan class="TextParagraph" font-family="Liberation Sans, sans-serif" font-size="353px" font-weight="400"><tspan class="TextPosition" x="687" y="4564"><tspan fill="rgb(0,0,0)" stroke="none" style="white-space: pre">-10.00 CNY</tspan></tspan></tspan></text>
 <text class="SVGTextShape"><tspan class="TextParagraph" font-family="Liberation Sans, sans-serif" font-size="353px" font-weight="400"><tspan class="TextPosition" x="978" y="3389"><tspan fill="rgb(0,0,0)" stroke="none" style="white-space: pre">0.00 CNY</tspan></tspan></tspan></text>
 <text class="SVGTextShape"><tspan class="TextParagraph" font-family="Noto Sans CJK SC, sans-serif" font-size="459px" font-weight="400"><tspan class="TextPosition" x="15692" y="1029"><tspan fill="rgb(0,0,0)" stroke="none" style="white-space: pre">微信付款支出统计</tspan></tspan></tspan></text>
</svg>