<?xml version="1.0" encoding="UTF-8"?>
<!DOCTYPE svg PUBLIC "-//W3C//DTD SVG 1.1//EN" "http://www.w3.org/Graphics/SVG/1.1/DTD/svg11.dtd">
<svg width="394mm" height="90mm" viewBox="0 0 39400 9000" version="1.1" xmlns="http://www.w3.org/2000/svg" xmlns:xlink="http://www.w3.org/1999/xlink" stroke-width="28.222" stroke-linejoin="round" xml:space="preserve">
 <path fill="none" stroke="rgb(179,179,179)" stroke-linejoin="round" d="M 20439,8159 L 3168,8159 3168,1619 37711,1619 37711,8159 20439,8159 Z"/>
 <path fill="none" stroke="rgb(179,179,179)" stroke-linejoin="round" d="M 37711,8158 L 3168,8158"/>
 <path fill="none" stroke="rgb(179,179,179)" stroke-linejoin="round" d="M 37711,7340 L 3168,7340"/>
 <path fill="none" stroke="rgb(179,179,179)" stroke-linejoin="round" d="M 37711,6522 L 3168,6522"/>
 <path fill="none" stroke="rgb(179,179,179)" stroke-linejoin="round" d="M 37711,5705 L 3168,5705"/>
 <path fill="none" stroke="rgb(179,179,179)" stroke-linejoin="round" d="M 37711,4887 L 3168,4887"/>
 <path fill="none" stroke="rgb(179,179,179)" stroke-linejoin="round" d="M 37711,4070 L 3168,4070"/>
 <path fill="none" stroke="rgb(179,179,179)" stroke-linejoin="round" d="M 37711,3253 L 3168,3253"/>
 <path fill="none" stroke="rgb(179,179,179)" stroke-linejoin="round" d="M 37711,2435 L 3168,2435"/>
 <path fill="none" stroke="rgb(179,179,179)" stroke-linejoin="round" d="M 37711,1618 L 3168,1618"/>
 <path fill="none" stroke="rgb(179,179,179)" stroke-linejoin="round" d="M 3168,8308 L 3168,8158"/>
 <path fill="none" stroke="rgb(179,179,179)" stroke-linejoin="round" d="M 3168,8308 L 3168,8158"/>
 <path fill="none" stroke="rgb(179,179,179)" stroke-linejoin="round" d="M 8925,8308 L 8925,8158"/>
 <path fill="none" stroke="rgb(179,179,179)" stroke-linejoin="round" d="M 8925,8308 L 8925,8158"/>
 <path fill="none" stroke="rgb(179,179,179)" stroke-linejoin="round" d="M 14682,8308 L 14682,8158"/>
 <path fill="none" stroke="rgb(179,179,179)" stroke-linejoin="round" d="M 14682,8308 L 14682,8158"/>
 <path fill="none" stroke="rgb(179,179,179)" stroke-linejoin="round" d="M 20439,8308 L 20439,8158"/>
 <path fill="none" stroke="rgb(179,179,179)" stroke-linejoin="round" d="M 20439,8308 L 20439,8158"/>
 <path fill="none" stroke="rgb(179,179,179)" stroke-linejoin="round" d="M 26196,8308 L 26196,8158"/>
 <path fill="none" stroke="rgb(179,179,179)" stroke-linejoin="round" d="M 26196,8308 L 26196,8158"/>
 <path fill="none" stroke="rgb(179,179,179)" stroke-linejoin="round" d="M 31953,8308 L 31953,8158"/>
 <path fill="none" stroke="rgb(179,179,179)" stroke-linejoin="round" d="M 31953,8308 L 31953,8158"/>
 <path fill="none" stroke="rgb(179,179,179)" stroke-linejoin="round" d="M 37711,8308 L 37711,8158"/>
 <path fill="none" stroke="rgb(179,179,179)" stroke-linejoin="round" d="M 37711,8308 L 37711,8158"/>
 <path fill="none" stroke="rgb(179,179,179)" stroke-linejoin="round" d="M 3168,8158 L 37711,8158"/>
 <path fill="none" stroke="rgb(179,179,179)" stroke-linejoin="round" d="M 3018,8158 L 3168,8158"/>
 <path fill="none" stroke="rgb(179,179,179)" stroke-linejoin="round" d="M 3018,8158 L 3168,8158"/>
 <path fill="none" stroke="rgb(179,179,179)" stroke-linejoin="round" d="M 3018,7340 L 3168,7340"/>
 <path fill="none" stroke="rgb(179,179,179)" stroke-linejoin="round" d="M 3018,7340 L 3168,7340"/>
 <path fill="none" stroke="rgb(179,179,179)" stroke-linejoin="round" d="M 3018,6522 L 3168,6522"/>
 <path fill="none" stroke="rgb(179,179,179)" stroke-linejoin="round" d="M 3018,6522 L 3168,6522"/>
 <path fill="none" stroke="rgb(179,179,179)" stroke-linejoin="round" d="M 3018,5705 L 3168,5705"/>
 <path fill="none" stroke="rgb(179,179,179)" stroke-linejoin="round" d="M 3018,5705 L 3168,5705"/>
 <path fill="none" stroke="rgb(179,179,179)" stroke-linejoin="round" d="M 3018,4887 L 3168,4887"/>
 <path fill="none" stroke="rgb(179,179,179)" stroke-linejoin="round" d="M 3018,4887 L 3168,4887"/>
 <path fill="none" stroke="rgb(179,179,179)" stroke-linejoin="round" d="M 3018,4070 L 3168,4070"/>
 <path fill="none" stroke="rgb(179,179,179)" stroke-linejoin="round" d="M 3018,4070 L 3168,4070"/>
 <path fill="none" stroke="rgb(179,179,179)" stroke-linejoin="round" d="M 3018,3253 L 3168,3253"/>
 <path fill="none" stroke="rgb(179,179,179)" stroke-linejoin="round" d="M 3018,3253 L 3168,3253"/>
 <path fill="none" stroke="rgb(179,179,179)" stroke-linejoin="round" d="M 3018,2435 L 3168,2435"/>
 <path fill="none" stroke="rgb(179,179,179)" stroke-linejoin="round" d="M 3018,2435 L 3168,2435"/>
 <path fill="none" stroke="rgb(179,179,179)" stroke-linejoin="round" d="M 3018,1618 L 3168,1618"/>
 <path fill="none" stroke="rgb(179,179,179)" stroke-linejoin="round" d="M 3018,1618 L 3168,1618"/>
 <path fill="none" stroke="rgb(179,179,179)" stroke-linejoin="round" d="M 3168,8158 L 3168,1618"/>
 <path fill="none" stroke="rgb(0,69,134)" stroke-width="80" stroke-linejoin="round" d="M 4319,4070 L 4895,4099 5470,4162 6046,4203 6622,4285 7198,4285 7773,4350 8349,4825 8925,4899 9501,5094 10076,5190 10652,1971 11228,5339 11804,5566 12379,5903 12955,6061 13531,6198 14106,6567 14682,6724 15258,6765 15834,7547 16409,7674 16985,6190 17561,6331 18137,6476 18712,7116 19288,7417 19863,7641 20439,7719 21014,7744 21590,5904 22166,5959 22741,6020 23317,6082 23893,6298 24469,6800 25044,6948 25620,7154 26196,5110 26772,7489 27347,7669 27923,7669 28499,7669 29075,7669 29650,7669 30226,7669 30802,7669 31377,7669 31953,7677 32529,5903 33105,5935 33680,6041 34256,6311 34832,4070"/>
 <text class="SVGTextShape"><tspan class="TextParagraph" font-family="Liberation Sans, sans-serif" font-size="353px" font-weight="400"><tspan class="TextPosition" x="2321" y="8726"><tspan fill="rgb(0,0,0)" stroke="none" style="white-space: pre">2024-08-16</tspan></tspan></tspan></text>
 <text class="SVGTextShape"><tspan class="TextParagraph" font-family="Liberation Sans, sans-serif" font-size="353px" font-weight="400"><tspan class="TextPosition" x="8078" y="8726"><tspan fill="rgb(0,0,0)" stroke="none" style="white-space: pre">2024-08-26</tspan></tspan></tspan></text>
 <text class="SVGTextShape"><tspan class="TextParagraph" font-family="Liberation Sans, sans-serif" font-size="353px" font-weight="400"><tspan class="TextPosition" x="13835" y="8726"><tspan fill="rgb(0,0,0)" stroke="none" style="white-space: pre">2024-09-05</tspan></tspan></tspan></text>
 <text class="SVGTextShape"><tspan class="TextParagraph" font-family="Liberation Sans, sans-serif" font-size="353px" font-weight="400"><tspan class="TextPosition" x="19593" y="8726"><tspan fill="rgb(0,0,0)" stroke="none" style="white-space: pre">2024-09-15</tspan></tspan></tspan></text>
 <text class="SVGTextShape"><tspan class="TextParagraph" font-family="Liberation Sans, sans-serif" font-size="353px" font-weight="400"><tspan class="TextPosition" x="25350" y="8726"><tspan fill="rgb(0,0,0)" stroke="none" style="white-space: pre">2024-09-25</tspan></tspan></tspan></text>
 <text class="SVGTextShape"><tspan class="TextParagraph" font-family="Liberation Sans, sans-serif" font-size="353px" font-weight="400"><tspan class="TextPosition" x="31107" y="8726"><tspan fill="rgb(0,0,0)" stroke="none" style="white-space: pre">2024-10-05</tspan></tspan></tspan></text>
 <text class="SVGTextShape"><tspan class="TextParagraph" font-family="Liberation Sans, sans-serif" font-size="353px" font-weight="400"><tspan class="TextPosition" x="36865" y="8726"><tspan fill="rgb(0,0,0)" stroke="none" style="white-space: pre">2024-10-15</tspan></tspan></tspan></text>
 <text class="SVGTextShape"><tspan class="TextParagraph" font-family="Liberation Sans, sans-serif" font-size="353px" font-weight="400"><tspan class="TextPosition" x="1436" y="8279"><tspan fill="rgb(0,0,0)" stroke="none" style="white-space: pre">0.00 CNY</tspan></tspan></tspan></text>
 <text class="SVGTextShape"><tspan class="TextParagraph" font-family="Liberation Sans, sans-serif" font-size="353px" font-weight="400"><tspan class="TextPosition" x="1066" y="7461"><tspan fill="rgb(0,0,0)" stroke="none" style="white-space: pre">200.00 CNY</tspan></tspan></tspan></text>
 <text class="SVGTextShape"><tspan class="TextParagraph" font-family="Liberation Sans, sans-serif" font-size="353px" font-weight="400"><tspan class="TextPosition" x="1066" y="6643"><tspan fill="rgb(0,0,0)" stroke="none" style="white-space: pre">400.00 CNY</tspan></tspan></tspan></text>
 <text class="SVGTextShape"><tspan class="TextParagraph" font-family="Liberation Sans, sans-serif" font-size="353px" font-weight="400"><tspan class="TextPosition" x="1066" y="5826"><tspan fill="rgb(0,0,0)" stroke="none" style="white-space: pre">600.00 CNY</tspan></tspan></tspan></text>
 <text class="SVGTextShape"><tspan class="TextParagraph" font-family="Liberation Sans, sans-serif" font-size="353px" font-weight="400"><tspan class="TextPosition" x="1066" y="5008"><tspan fill="rgb(0,0,0)" stroke="none" style="white-space: pre">800.00 CNY</tspan></tspan></tspan></text>
 <text class="SVGTextShape"><tspan class="TextParagraph" font-family="Liberation Sans, sans-serif" font-size="353px" font-weight="400"><tspan class="TextPosition" x="775" y="4190"><tspan fill="rgb(0,0,0)" stroke="none" style="white-space: pre">1,000.00 CNY</tspan></tspan></tspan></text>
 <text class="SVGTextShape"><tspan class="TextParagraph" font-family="Liberation Sans, sans-serif" font-size="353px" font-weight="400"><tspan class="TextPosition" x="775" y="3373"><tspan fill="rgb(0,0,0)" stroke="none" style="white-space: pre">1,200.00 CNY</tspan></tspan></tspan></text>
 <text class="SVGTextShape"><tspan class="TextParagraph" font-family="Liberation Sans, sans-serif" font-size="353px" font-weight="400"><tspan class="TextPosition" x="775" y="2555"><tspan fill="rgb(0,0,0)" stroke="none" style="white-space: pre">1,400.00 CNY</tspan></tspan></tspan></text>
 <text class="SVGTextShape"><tspan class="TextParagraph" font-family="Liberation Sans, sans-serif" font-size="353px" font-weight="400"><tspan class="TextPosition" x="775" y="1738"><tspan fill="rgb(0,0,0)" stroke="none" style="white-space: pre">1,600.00 CNY</tspan></tspan></tspan></text>
 <text class="SVGTextShape"><tspan class="TextParagraph" font-family="Noto Sans CJK SC, sans-serif" font-size="459px" font-weight="400"><tspan class="TextPosition" x="18317" y="970"><tspan fill="rgb(0,0,0)" stroke="none" style="white-space: pre">微信余额变化</tspan></tspan></tspan></text>
</svg>